<?xml version="1.0" standalone="no"?>
<!DOCTYPE svg PUBLIC "-//W3C//DTD SVG 20010904//EN"
 "http://www.w3.org/TR/2001/REC-SVG-20010904/DTD/svg10.dtd">
<svg version="1.0" xmlns="http://www.w3.org/2000/svg"
 width="792.000000pt" height="792.000000pt" viewBox="0 0 792.000000 792.000000"
 preserveAspectRatio="xMidYMid meet">
<metadata>
Created by potrace 1.14, written by Peter Selinger 2001-2017
</metadata>
<g transform="translate(0.000000,792.000000) scale(0.100000,-0.100000)"
fill="#000000" stroke="none">
<path d="M3784 7855 c-71 -37 -137 -74 -146 -83 -10 -8 -18 -12 -18 -7 0 4 -6
2 -13 -4 -14 -11 -155 -89 -217 -119 -19 -9 -41 -23 -48 -29 -7 -7 -17 -13
-22 -13 -5 0 -35 -15 -67 -34 -32 -18 -97 -54 -145 -79 -47 -26 -103 -56 -125
-68 -51 -29 -119 -66 -228 -124 -49 -26 -94 -51 -100 -55 -5 -4 -59 -33 -120
-65 -60 -32 -114 -61 -120 -65 -5 -4 -41 -24 -80 -45 -38 -20 -85 -46 -102
-57 -18 -11 -33 -16 -33 -11 0 4 -4 3 -8 -3 -4 -6 -36 -26 -72 -46 -36 -19
-92 -50 -125 -68 -33 -18 -89 -48 -125 -68 -36 -19 -78 -42 -95 -52 -28 -16
-142 -78 -230 -123 -22 -12 -48 -28 -57 -36 -10 -8 -18 -10 -18 -5 0 5 -4 5
-8 -1 -4 -5 -20 -17 -37 -26 -74 -40 -190 -103 -309 -168 -71 -39 -138 -73
-148 -77 -10 -3 -18 -10 -18 -15 0 -6 -4 -8 -9 -5 -5 3 -14 -1 -21 -9 -7 -8
-16 -15 -20 -15 -4 0 -65 -31 -135 -70 -70 -38 -132 -70 -136 -70 -4 0 -9 -3
-11 -7 -1 -5 -25 -20 -53 -34 -116 -59 -175 -93 -198 -113 -22 -20 -51 -62
-52 -78 0 -3 -3 -10 -8 -14 -4 -4 -7 -874 -7 -1932 l0 -1925 27 -48 c14 -27
30 -49 34 -49 4 0 14 -6 21 -13 7 -8 54 -35 103 -62 50 -26 129 -70 176 -96
48 -27 90 -49 93 -49 4 0 23 -10 44 -23 20 -13 69 -41 107 -62 39 -20 97 -52
130 -71 105 -58 229 -124 265 -142 19 -9 37 -19 40 -22 6 -6 13 -10 135 -75
50 -26 104 -56 120 -65 28 -16 50 -29 203 -111 31 -17 80 -44 107 -59 28 -15
81 -44 118 -64 37 -20 82 -45 100 -55 18 -10 68 -37 112 -61 44 -24 120 -65
169 -92 49 -27 121 -67 160 -87 39 -21 87 -47 106 -58 19 -11 76 -42 125 -68
50 -27 104 -57 120 -66 17 -10 48 -27 70 -38 22 -11 76 -40 120 -65 44 -25
105 -58 135 -75 30 -16 75 -41 100 -54 25 -14 82 -45 128 -68 45 -24 82 -47
82 -51 0 -5 8 -8 18 -8 9 0 42 -16 72 -35 30 -19 60 -35 66 -35 7 0 14 -3 16
-8 3 -8 77 -50 136 -77 19 -9 59 -18 90 -21 54 -6 62 -3 162 48 116 61 224
118 285 153 22 12 65 36 95 52 30 17 75 41 100 55 25 14 81 45 125 68 44 24
166 90 270 148 105 57 237 130 295 160 58 31 107 59 108 64 2 4 12 8 23 8 10
0 19 4 19 9 0 5 8 12 18 15 10 4 74 37 143 74 68 38 156 86 194 107 39 20 93
50 120 65 90 50 139 76 230 125 50 27 141 77 204 112 62 35 115 63 117 63 1 0
29 15 61 34 32 18 99 55 148 81 50 27 108 58 130 70 22 12 65 36 95 52 30 17
87 48 125 68 39 21 86 47 105 58 19 11 63 35 97 52 34 18 68 37 75 42 7 5 51
30 98 54 47 24 87 47 90 50 3 4 15 9 27 13 26 8 105 95 98 107 -3 4 -1 10 5
14 7 4 10 638 10 1933 0 1852 -1 1929 -19 1967 -25 54 -50 74 -161 132 -101
52 -113 59 -175 94 -22 13 -46 24 -54 26 -8 1 -17 6 -20 11 -3 4 -49 31 -101
58 -52 27 -97 51 -100 54 -3 3 -27 17 -55 30 -27 14 -51 28 -53 33 -2 4 -8 7
-14 7 -6 0 -33 13 -59 30 -27 16 -49 27 -49 23 0 -3 -8 1 -17 9 -10 8 -58 37
-108 63 -155 83 -218 117 -288 157 -38 21 -71 38 -73 38 -2 0 -37 20 -79 45
-41 24 -75 42 -75 39 0 -3 -13 4 -29 15 -16 12 -31 21 -34 21 -3 0 -56 29
-118 63 -63 35 -152 84 -199 109 -47 25 -118 64 -159 87 -41 22 -77 41 -81 41
-4 0 -13 7 -20 15 -7 8 -16 13 -20 10 -4 -3 -18 3 -31 13 -22 17 -69 43 -269
150 -111 59 -124 66 -142 81 -10 8 -18 10 -18 6 0 -4 -8 -2 -17 6 -10 8 -27
19 -38 25 -74 40 -186 100 -220 118 -22 12 -42 23 -45 26 -3 3 -36 21 -75 40
-38 19 -72 38 -75 41 -3 4 -34 21 -70 39 -36 18 -73 39 -82 48 -10 8 -18 12
-18 8 0 -3 -17 4 -37 17 -21 13 -76 43 -123 68 -47 24 -87 47 -90 51 -11 15
-108 45 -151 47 -40 2 -64 -7 -175 -64z m84 -1122 c62 -31 276 -145 287 -153
12 -8 179 -99 315 -171 25 -13 47 -27 48 -31 2 -5 8 -8 13 -8 6 0 84 -40 174
-90 90 -49 168 -90 174 -90 5 0 11 -3 13 -7 2 -5 28 -21 58 -37 99 -52 141
-105 146 -185 1 -24 -5 -60 -13 -80 -16 -36 -53 -90 -53 -76 0 5 -10 0 -22
-11 -13 -11 -52 -35 -88 -54 -36 -18 -73 -40 -82 -48 -10 -8 -18 -12 -18 -7 0
4 -6 3 -12 -2 -12 -10 -41 -26 -180 -101 -29 -16 -114 -62 -188 -102 -74 -41
-137 -74 -140 -73 -3 0 -16 -7 -30 -17 -14 -9 -68 -40 -120 -67 -52 -28 -129
-70 -170 -92 -178 -99 -222 -103 -354 -37 -45 23 -83 43 -86 46 -3 3 -23 15
-45 26 -22 12 -67 36 -100 55 -33 18 -82 44 -110 58 -27 14 -52 28 -55 31 -3
3 -27 17 -55 31 -27 14 -79 42 -115 61 -234 128 -384 208 -391 208 -4 0 -9 3
-11 8 -1 4 -32 22 -68 41 -74 39 -108 71 -131 121 -19 43 -18 114 4 155 19 38
65 85 83 85 7 0 14 3 16 8 2 4 19 15 38 25 129 68 234 125 293 158 38 22 70
39 72 39 2 0 27 13 55 30 27 16 50 26 50 22 0 -4 4 -2 8 4 4 6 61 39 127 74
66 35 122 66 125 69 3 3 25 16 50 28 81 40 231 121 245 133 7 6 37 19 66 30
63 22 124 19 177 -7z m3319 -2883 c-1 -1077 -5 -1642 -12 -1649 -5 -5 -41 -26
-80 -46 -38 -21 -92 -50 -120 -65 -96 -53 -211 -115 -470 -256 -110 -59 -203
-113 -207 -118 -4 -6 -8 -8 -8 -4 0 4 -28 -9 -62 -28 -35 -20 -101 -56 -148
-82 -47 -25 -116 -62 -153 -84 -38 -21 -70 -38 -72 -38 -2 0 -30 -15 -62 -33
-32 -19 -94 -53 -138 -77 -73 -39 -143 -77 -250 -136 -22 -12 -69 -37 -105
-56 -36 -18 -67 -36 -70 -39 -3 -3 -18 -12 -35 -20 -31 -16 -165 -88 -221
-120 -18 -9 -76 -41 -130 -70 -55 -29 -103 -55 -109 -59 -5 -4 -46 -26 -90
-50 -78 -42 -100 -54 -215 -117 -30 -17 -91 -49 -135 -73 -44 -23 -84 -47 -89
-51 -6 -5 -15 -9 -20 -9 -15 0 -15 3265 -1 3278 6 5 39 25 75 44 101 55 200
109 255 140 28 15 70 38 95 50 25 13 47 26 48 31 2 4 7 7 11 7 5 0 65 32 135
70 69 39 131 70 136 70 6 0 10 4 10 8 0 5 17 16 38 25 20 9 66 32 102 53 36
21 97 54 135 75 39 20 90 48 115 63 25 14 61 34 80 44 118 62 219 118 242 134
14 10 29 18 32 18 3 0 77 39 163 86 87 48 182 99 211 115 87 48 153 84 241
133 46 25 87 46 92 46 5 0 9 5 9 10 0 6 9 10 20 10 11 0 20 4 20 9 0 5 10 13
21 16 12 4 47 22 78 40 31 17 85 48 121 67 36 20 92 50 125 68 33 18 83 45
110 59 28 14 52 28 55 31 3 3 30 18 60 34 30 16 78 42 105 58 28 15 53 28 57
28 3 0 5 -738 5 -1640z m-6377 1487 c36 -19 204 -105 375 -191 171 -87 316
-163 323 -168 6 -6 12 -7 12 -3 0 4 6 3 13 -3 11 -10 82 -46 762 -392 165 -84
306 -157 313 -162 6 -6 12 -7 12 -4 0 4 14 -2 30 -14 17 -12 36 -23 43 -24 7
-1 18 -5 25 -10 8 -4 107 -55 220 -113 647 -329 797 -406 802 -410 6 -5 7
-3283 1 -3283 -4 0 -202 106 -321 172 -25 14 -71 39 -102 57 -32 17 -82 44
-110 60 -29 15 -84 46 -123 67 -38 21 -92 50 -120 66 -27 15 -57 31 -65 35 -8
4 -44 23 -80 43 -61 34 -127 71 -275 150 -68 37 -151 82 -210 115 -22 12 -67
37 -100 55 -262 142 -340 185 -343 192 -2 4 -12 8 -22 8 -10 0 -25 6 -32 12
-15 14 -17 15 -133 78 -44 24 -105 57 -135 73 -57 31 -90 49 -245 132 -49 27
-91 52 -93 57 -2 4 -12 8 -22 8 -10 0 -21 4 -24 9 -3 5 -39 26 -78 46 -40 21
-85 46 -101 57 -15 11 -27 16 -27 13 0 -3 -12 2 -28 13 -15 10 -40 26 -57 34
-40 20 -149 80 -155 85 -7 6 -7 3173 0 3173 3 0 34 -15 70 -33z"/>
<path d="M3795 6311 c-6 -5 -39 -24 -75 -43 -36 -19 -83 -45 -105 -58 -22 -12
-58 -32 -80 -43 -22 -12 -42 -23 -45 -26 -3 -4 -23 -15 -45 -26 -22 -11 -57
-30 -77 -42 -21 -13 -38 -20 -38 -16 0 5 -4 3 -8 -3 -4 -6 -29 -23 -57 -38
-102 -53 -136 -74 -128 -79 4 -3 35 -20 68 -37 33 -18 76 -42 95 -54 19 -11
37 -21 40 -21 3 0 25 -12 50 -26 174 -101 411 -229 423 -229 7 0 67 29 132 65
64 36 121 65 125 65 5 0 10 3 12 8 2 4 23 17 48 30 25 12 65 34 90 49 25 14
95 53 155 86 61 33 112 61 114 64 6 4 -31 31 -40 29 -4 0 -15 6 -25 14 -11 9
-44 29 -74 45 -30 15 -66 36 -80 45 -14 10 -49 28 -77 41 -29 13 -53 27 -53
31 0 5 -4 8 -9 8 -5 0 -38 16 -73 36 -76 43 -246 134 -251 134 -1 0 -7 -4 -12
-9z"/>
<path d="M1263 4274 c-118 -51 -159 -207 -79 -301 29 -33 61 -53 207 -130 19
-10 36 -20 39 -23 3 -3 39 -22 80 -43 41 -20 102 -52 135 -70 33 -18 110 -59
170 -92 61 -32 137 -73 170 -90 133 -72 334 -180 424 -228 53 -28 114 -61 136
-74 77 -43 110 -55 165 -56 102 -3 180 55 207 153 16 58 -13 147 -60 185 -18
14 -38 30 -44 36 -7 5 -13 7 -13 3 0 -4 -8 0 -17 8 -10 8 -49 31 -88 50 -136
70 -160 83 -167 93 -4 6 -8 6 -8 1 0 -5 -6 -3 -13 3 -8 6 -43 26 -78 44 -35
19 -98 52 -139 74 -41 22 -124 66 -185 98 -60 32 -114 61 -120 65 -5 4 -73 40
-150 80 -77 40 -153 82 -168 92 -15 11 -33 21 -40 22 -7 1 -28 11 -47 22 -19
12 -68 38 -109 58 -81 40 -148 46 -208 20z"/>
<path d="M1276 3195 c-21 -8 -52 -26 -68 -42 -35 -33 -71 -99 -65 -117 3 -7 1
-19 -3 -27 -5 -7 -5 -18 1 -25 5 -7 9 -16 8 -20 -4 -15 18 -58 43 -85 21 -24
83 -60 243 -143 33 -17 62 -33 65 -36 3 -3 21 -13 40 -22 19 -10 78 -40 130
-68 52 -29 122 -66 155 -83 33 -17 77 -41 98 -54 20 -13 37 -20 37 -17 0 4 8
1 18 -7 9 -8 40 -27 67 -41 28 -14 75 -39 105 -55 30 -17 109 -58 175 -93 66
-35 122 -67 123 -72 2 -4 11 -8 21 -8 9 0 21 -4 27 -9 5 -4 41 -25 79 -46 58
-32 80 -38 130 -39 74 0 98 6 141 39 94 72 101 210 15 293 -17 16 -66 47 -109
69 -97 51 -259 137 -427 228 -161 87 -216 116 -290 154 -44 22 -85 44 -90 48
-6 5 -38 22 -70 38 -33 17 -62 32 -65 35 -3 3 -25 15 -50 27 -25 12 -83 43
-130 68 -192 104 -219 116 -267 120 -27 1 -66 -3 -87 -10z"/>
</g>
</svg>
